# AST/ASF file generated using VICON BodyLanguage
# -----------------------------------------------
:version 1.10
:name VICON
:units
  mass 1.0
  length 0.45
  angle deg
:documentation
   .ast/.asf automatically generated from VICON data using
   VICON BodyBuilder and BodyLanguage model FoxedUp or BRILLIANT.MOD
:root
   order TX TY TZ RX RY RZ
   axis XYZ
   position 0 0 0  
   orientation 0 0 0 
:bonedata
  begin
     id 1 
     name lhipjoint
     direction 0.597014 -0.743513 0.301268 
     length 2.48253 
     axis 0 0 0  XYZ
  end
  begin
     id 2 
     name lfemur
     direction 0.34202 -0.939693 0  
     length 7.51389  
     axis 0 0 20  XYZ
    dof rx ry rz
    limits (-160.0 20.0)
           (-70.0 70.0)
           (-60.0 70.0)
  end
  begin
     id 3 
     name ltibia
     direction 0.34202 -0.939693 0   
     length 7.54147   
     axis 0 0 20   XYZ
    dof rx
    limits (-10.0 170.0)
  end
  begin
     id 4 
     name lfoot
     direction 0.10378 -0.285133 0.952853   
     length 2.2132   
     axis -90 7.62852e-016 20   XYZ
    dof rx rz
    limits (-45.0 90.0)
           (-70.0 20.0)
  end
  begin
     id 5 
     name ltoes
     direction 1.5354e-011 -4.2171e-011 1   
     length 1.10362   
     axis -90 7.62852e-016 20   XYZ
    dof rx
    limits (-90.0 20.0)
  end
  begin
     id 6 
     name rhipjoint
     direction -0.591912 -0.747009 0.302685   
     length 2.47092  
     axis 0 0 0  XYZ 
  end
  begin
     id 7 
     name rfemur
     direction -0.34202 -0.939693 0   
     length 7.69991   
     axis 0 0 -20   XYZ
    dof rx ry rz
    limits (-160.0 20.0)
           (-70.0 70.0)
           (-70.0 60.0)
  end
  begin
     id 8 
     name rtibia
     direction -0.34202 -0.939693 0   
     length 7.40774   
     axis 0 0 -20   XYZ
    dof rx
    limits (-10.0 170.0)
 end
 begin
     id 9 
     name rfoot
     direction -0.0916245 -0.251736 0.963449   
     length 2.08235  
     axis -90 -7.62852e-016 -20   XYZ
    dof rx rz
    limits (-45.0 90.0)
           (-20.0 70.0)
  end
  begin
     id 10 
     name rtoes
     direction -1.53527e-011 -4.21878e-011 1   
     length 1.04369   
     axis -90 -7.62852e-016 -20   XYZ
    dof rx
    limits (-90.0 20.0)
  end
  begin
     id 11 
     name lowerback
     direction -0.0122523 0.991496 -0.12956   
     length 2.10814   
     axis 0 0 0   XYZ
    dof rx ry rz
    limits (-20.0 45.0)
           (-30.0 30.0)
           (-30.0 30.0)
  end
  begin
     id 12 
     name upperback
     direction 0.012378 0.999784 -0.0167122   
     length 2.11728   
     axis 0 0 0   XYZ
    dof rx ry rz
    limits (-20.0 45.0)
           (-30.0 30.0)
           (-30.0 30.0)
  end
  begin
     id 13 
     name thorax
     direction 0.0187236 0.998893 0.0431542   
     length 2.15267   
     axis 0 0 0   XYZ
    dof rx ry rz
    limits (-20.0 45.0)
           (-30.0 30.0)
           (-30.0 30.0)
  end
  begin
     id 14 
     name lowerneck
     direction 0.0165467 0.987304 0.157979   
     length 1.72129   
     axis 0 0 0   XYZ
    dof rx ry rz
    limits (-20.0 45.0)
           (-30.0 30.0)
           (-30.0 30.0)
  end
  begin
     id 15 
     name upperneck
     direction -0.0560236 0.986819 -0.151818   
     length 1.75382   
     axis 0 0 0   XYZ
    dof rx ry rz
    limits (-20.0 45.0)
           (-30.0 30.0)
           (-30.0 30.0)
  end
  begin
     id 16
     name head
     direction -0.0173602 0.99745 -0.0692312  
     length 1.76328  
     axis 0 0 0   XYZ
    dof rx ry rz
    limits (-20.0 45.0)
           (-30.0 30.0)
           (-30.0 30.0)
  end
  begin
     id 17 
     name lclavicle
     direction 0.957734 0.271724 -0.094399  
     length 3.5782  
     axis 0 0 0   XYZ
    dof ry rz
    limits (-20.0 10.0)
           (0.0 20.0)
  end
  begin
     id 18 
     name lhumerus
     direction 1 -4.48963e-011 1.21581e-027   
     length 5.25525   
     axis 180 -30 -90   XYZ
    dof rx ry rz
    limits (-60.0 90.0)
           (-90.0 90.0)
           (-90.0 90.0)
  end
  begin
     id 19
     name lradius
     direction 1 -4.48975e-011 3.71216e-028   
     length 3.35106   
     axis 180 -30 -90   XYZ
    dof rx
    limits (-10.0 170.0)
  end
  begin
     id 20
     name lwrist
     direction 1 -4.48957e-011 4.76535e-027   
     length 1.67553   
     axis -3.27501e-015 90 90   XYZ
    dof ry
    limits (-180.0 0.0)
 end
  begin
     id 21 
     name lhand
     direction 1 -4.49008e-011 9.52727e-027   
     length 0.574153   
     axis -6.08097e-015 90 90   XYZ
    dof rx rz
    limits (-90.0 90.0)
           (-45.0 45.0)
  end
  begin
     id 22 
     name lfingers
     direction 1 -4.48996e-011 1.90562e-026   
     length 0.462897   
     axis -1.21618e-014 90 90   XYZ
    dof rx
    limits (0.0 90.0)
  end
  begin
     id 23
     name lthumb
     direction 0.707107 -6.34908e-011 0.707107   
     length 0.66463   
     axis -90 45 -1.62303e-014   XYZ
    dof rx rz
    limits (-45.0 45.0)
           (-45.0 45.0)
  end
  begin
     id 24 
     name rclavicle
     direction -0.950439 0.29623 -0.0944132   
     length 3.45861  
     axis 0 0 0   XYZ 
    dof ry rz
    limits (-10.0 20.0)
           (-20.0 0.0)
  end
  begin
     id 25 
     name rhumerus
     direction -1 -4.48986e-011 1.25473e-027  
     length 5.33104   
     axis 180 30 90   XYZ
    dof rx ry rz
    limits (-90.0 60.0)
           (-90.0 90.0)
           (-90.0 90.0)
  end
  begin
     id 26 
     name rradius
     direction -1 -4.4894e-011 1.66273e-027   
     length 3.39883   
     axis 180 30 90   XYZ
    dof rx
    limits (-10.0 170.0)
  end
  begin
     id 27 
     name rwrist
     direction -1 -4.48946e-011 4.76572e-027   
     length 1.69941   
     axis -3.27501e-015 -90 -90   XYZ
    dof ry
    limits (-180.0 0.0)
  end
  begin
     id 28
     name rhand
     direction -1 -4.49028e-011 9.52595e-027   
     length 0.913886   
     axis -6.08097e-015 -90 -90   XYZ
    dof rx rz
    limits (-90.0 90.0)
           (-45.0 45.0)
  end
  begin
     id 29
     name rfingers
     direction -1 -4.48945e-011 1.9063e-026   
     length 0.736798   
     axis -1.21618e-014 -90 -90   XYZ
    dof rx
    limits (0.0 90.0)
  end
  begin
     id 30
     name rthumb
     direction -0.707107 -6.34966e-011 0.707107   
     length 1.0579   
     axis -90 -45 1.62303e-014   XYZ
    dof rx rz
    limits (-45.0 45.0)
           (-45.0 45.0)
  end
:hierarchy
  begin
    root lhipjoint rhipjoint lowerback
    lhipjoint lfemur
    lfemur ltibia
    ltibia lfoot
    lfoot ltoes
    rhipjoint rfemur
    rfemur rtibia
    rtibia rfoot
    rfoot rtoes
    lowerback upperback
    upperback thorax
    thorax lowerneck lclavicle rclavicle
    lowerneck upperneck
    upperneck head
    lclavicle lhumerus
    lhumerus lradius
    lradius lwrist
    lwrist lhand lthumb
    lhand lfingers
    rclavicle rhumerus
    rhumerus rradius
    rradius rwrist
    rwrist rhand rthumb
    rhand rfingers
  end

#!OML:ASF F:\VICON\USERDATA\INSTALL\rory3\rory3.ASF
:FULLY-SPECIFIED
:DEGREES
41
root -11.035 17.0048 25.3016 -29.7419 -76.5816 19.3727
lowerback 17.3574 -3.04543 -4.83383
upperback -3.6478 -5.36165 -1.28225
thorax -13.5732 -2.15854 2.82167
lowerneck -15.5603 -8.48428 -7.27752
upperneck 8.6842 -10.0813 1.91938
head 5.59269 -5.02575 0.787727
rclavicle -5.93869e-015 1.07344e-014
rhumerus 101.404 -34.6165 -47.1193
rradius 50.6936
rwrist -37.8863
rhand -20.7712 -17.6422
rfingers 7.12502
rthumb 5.59526 -47.5484
lclavicle -5.93869e-015 1.07344e-014
lhumerus 98.549 43.3181 40.7372
lradius 41.3372
lwrist 55.2317
lhand -10.3581 33.0718
lfingers 7.12502
lthumb 15.6388 62.4596
rfemur 1.5567 -1.91639 4.89481
rtibia 43.494
rfoot -20.1707 -12.7963
rtoes -26.4074
lfemur 8.37992 -13.1956 -12.5012
ltibia 33.9163
lfoot -11.3644 -13.3895
ltoes -29.045
42
root -11.1195 16.8844 25.1028 -29.9522 -75.1375 19.3206
lowerback 18.0003 -3.2675 -5.91707
upperback -3.69762 -5.9892 -1.48529
thorax -13.8918 -2.35293 3.42206
lowerneck -15.674 -7.60688 -6.21778
upperneck 9.05528 -9.05255 1.35144
head 5.60966 -4.53329 0.54933
rclavicle 5.25537e-014 2.48481e-015
rhumerus 100.597 -34.1474 -45.0016
rradius 51.7448
rwrist -36.8786
rhand -22.0844 -20.5287
rfingers 7.12502
rthumb 4.3273 -50.4645
lclavicle 5.25537e-014 2.48481e-015
lhumerus 94.8144 43.2047 37.5481
lradius 43.0202
lwrist 54.5023
lhand -15.1287 36.2605
lfingers 7.12502
lthumb 11.0406 65.9501
rfemur 1.67359 -3.44393 4.72117
rtibia 45.1719
rfoot -22.4613 -13.1357
rtoes -23.81
lfemur 8.4482 -13.6113 -12.3833
ltibia 34.2038
lfoot -12.5189 -13.2859
ltoes -26.2409
43
root -11.2249 16.8245 24.8985 -28.9503 -73.6866 18.0947
lowerback 17.9941 -3.35342 -6.23685
upperback -3.51843 -6.22807 -1.89941
thorax -13.6761 -2.47577 3.19601
lowerneck -16.6388 -6.94466 -4.95715
upperneck 10.0723 -8.2878 0.616909
head 5.97751 -4.17001 0.154389
rclavicle 1.18137e-014 -8.27441e-015
rhumerus 99.4812 -34.2901 -42.6261
rradius 52.5655
rwrist -35.6822
rhand -22.6259 -24.0874
rfingers 7.12502
rthumb 3.80437 -54.0332
lclavicle 1.18137e-014 -8.27441e-015
lhumerus 93.1995 42.5232 37.4906
lradius 44.3502
lwrist 57.7518
lhand -17.5506 36.9861
lfingers 7.12502
lthumb 8.70399 66.7866
rfemur 2.00992 -4.91062 5.27423
rtibia 46.2218
rfoot -23.9542 -14.6671
rtoes -21.6128
lfemur 8.39475 -14.7571 -12.2538
ltibia 34.5098
lfoot -13.0941 -12.3475
ltoes -21.6569
44
root -11.356 16.8391 24.6848 -27.1199 -72.5761 16.0313
lowerback 17.4798 -3.15318 -6.00696
upperback -3.26941 -5.88946 -2.19803
thorax -13.1638 -2.38622 2.59631
lowerneck -17.7934 -6.57431 -3.95341
upperneck 11.3343 -7.79919 -0.552214
head 6.47034 -3.98921 -0.380769
rclavicle -2.58172e-014 -2.43511e-014
rhumerus 98.4888 -34.3638 -40.6324
rradius 53.0554
rwrist -34.178
rhand -19.9674 -25.0584
rfingers 7.12502
rthumb 6.37129 -54.9425
lclavicle -2.58172e-014 -2.43511e-014
lhumerus 91.0862 41.6469 38.238
lradius 46.4668
lwrist 60.8018
lhand -18.8599 36.956
lfingers 7.12502
lthumb 7.44038 66.8052
rfemur 2.65443 -7.79026 5.7094
rtibia 46.6618
rfoot -24.7039 -14.4519
rtoes -20.3612
lfemur 8.36588 -16.0909 -11.6916
ltibia 34.6332
lfoot -12.2053 -11.0972
ltoes -29.0176
45
root -11.4941 16.9088 24.4589 -24.2054 -71.68 13.1571
lowerback 16.592 -2.69867 -5.43324
upperback -3.21935 -5.08002 -2.20575
thorax -12.6846 -2.07854 1.99327
lowerneck -19.2969 -6.54097 -3.88327
upperneck 13.2865 -7.51663 -1.6517
head 7.30639 -3.95831 -0.808483
rclavicle 5.61567e-015 2.74323e-014
rhumerus 97.6008 -33.984 -38.6526
rradius 53.3477
rwrist -32.0377
rhand -13.9319 -23.7574
rfingers 7.12502
rthumb 12.1948 -53.382
lclavicle 5.61567e-015 2.74323e-014
lhumerus 87.1993 40.5989 38.4595
lradius 49.9551
lwrist 62.6631
lhand -21.1977 37.8469
lfingers 7.12502
lthumb 5.18349 67.7636
rfemur 3.14145 -9.63894 7.00551
rtibia 46.6034
rfoot -24.5027 -14.5876
rtoes -19.706
lfemur 7.71442 -17.1558 -10.4481
ltibia 34.8941
lfoot -10.2831 -9.93335
ltoes -34.029
46
root -11.6373 17.0178 24.2237 -21.7821 -70.8109 10.7034
lowerback 15.684 -2.21701 -5.0534
upperback -3.27686 -4.30457 -2.30501
thorax -12.2937 -1.76605 1.42441
lowerneck -20.303 -6.37308 -2.50532
upperneck 15.0141 -7.26808 -3.58108
head 7.91901 -3.97498 -1.70358
rclavicle 2.92213e-014 -2.5842e-014
rhumerus 96.9375 -33.0258 -37.8615
rradius 52.9076
rwrist -26.0845
rhand -0.785362 -15.5479
rfingers 7.12502
rthumb 24.8379 -43.9546
lclavicle 2.92213e-014 -2.5842e-014
lhumerus 83.593 38.7807 39.2764
lradius 53.6474
lwrist 64.4774
lhand -22.4196 38.9332
lfingers 7.12502
lthumb 4.00359 68.8754
rfemur 3.82 -10.4728 8.34721
rtibia 46.1387
rfoot -23.2719 -13.9394
rtoes -19.6813
lfemur 6.82494 -17.4277 -9.11647
ltibia 35.3101
lfoot -7.56227 -8.67929
ltoes -40.1071
47
root -11.7789 17.177 23.9874 -17.7629 -70.2201 6.59956
lowerback 14.7631 -1.94835 -4.12505
upperback -3.29619 -3.68503 -2.21589
thorax -11.8466 -1.55198 0.808029
lowerneck -21.6647 -5.80883 -1.19436
upperneck 16.7538 -6.45099 -5.42416
head 8.63852 -3.73241 -2.52622
rclavicle 3.16068e-014 -1.39149e-014
rhumerus 95.1923 -32.2631 -36.2557
rradius 54.1477
rwrist -24.595
rhand 10.4868 -7.24412
rfingers 7.12502
rthumb 35.5879 -33.6608
lclavicle 3.16068e-014 -1.39149e-014
lhumerus 81.2306 36.3645 40.8792
lradius 56.5841
lwrist 65.603
lhand -23.0125 39.72
lfingers 7.12502
lthumb 3.43104 69.6722
rfemur 4.48503 -12.4295 9.53765
rtibia 45.5521
rfoot -20.5951 -10.8751
rtoes -20.5001
lfemur 5.59577 -18.061 -7.02883
ltibia 36.0928
lfoot -3.32649 -7.32458
ltoes -37.8635
48
root -11.9148 17.3675 23.7436 -14.6561 -69.3328 3.37575
lowerback 13.9262 -1.81203 -3.31857
upperback -3.19528 -3.29768 -2.23166
thorax -11.2926 -1.44031 0.213487
lowerneck -22.8919 -5.3988 -0.502534
upperneck 18.3157 -5.90099 -6.06434
head 9.36363 -3.52386 -2.88403
rclavicle -4.77083e-015 -3.26007e-014
rhumerus 93.5579 -31.3738 -34.7946
rradius 55.7822
rwrist -24.316
rhand 23.186 6.08432
rfingers 7.12502
rthumb 47.4907 -16.3627
lclavicle -4.77083e-015 -3.26007e-014
lhumerus 78.0267 34.7828 41.9257
lradius 60.0507
lwrist 67.6454
lhand -23.3255 40.3137
lfingers 7.12502
lthumb 3.1288 70.2705
rfemur 5.12791 -13.2651 10.6675
rtibia 45.0567
rfoot -17.4024 -7.42235
rtoes -21.6631
lfemur 3.83961 -17.6219 -5.30446
ltibia 37.1477
lfoot 1.24462 -5.76395
ltoes -39.721
49
root -12.0388 17.543 23.5106 -12.1145 -68.2967 0.637116
lowerback 13.1874 -1.74574 -2.41757
upperback -3.0162 -3.00195 -2.21839
thorax -10.7041 -1.3699 -0.371556
lowerneck -23.4856 -4.78354 0.0935458
upperneck 19.1284 -5.20619 -6.12709
head 9.75903 -3.1749 -2.95547
rclavicle 6.79844e-014 2.38542e-015
rhumerus 92.5731 -30.0143 -33.7673
rradius 56.7911
rwrist -23.911
rhand 34.8809 31.3358
rfingers 7.12502
rthumb 58.0334 15.6444
lclavicle 6.79844e-014 2.38542e-015
lhumerus 75.1786 33.3462 43.3895
lradius 62.7544
lwrist 68.7523
lhand -22.6233 40.0752
lfingers 7.12502
lthumb 3.80689 70.0209
rfemur 5.63057 -14.0664 11.2951
rtibia 44.8717
rfoot -13.1979 -3.0153
rtoes -23.3499
lfemur 2.00135 -17.3199 -4.00133
ltibia 38.4771
lfoot 5.60153 -3.71571
ltoes -37.7815
50
root -12.1491 17.7048 23.2787 -10.0798 -67.3469 -1.65236
lowerback 12.7408 -1.67122 -1.81988
upperback -2.8695 -2.7427 -1.91968
thorax -10.2893 -1.27622 -0.456478
lowerneck -23.703 -4.42899 -0.167086
upperneck 19.5578 -4.68246 -5.82488
head 9.98822 -2.9194 -2.75513
rclavicle 4.57205e-015 3.97569e-015
rhumerus 91.7192 -28.2981 -32.4031
rradius 58.0034
rwrist -24.2277
rhand 32.5286 59.7885
rfingers 7.12502
rthumb 55.9647 42.3715
lclavicle 4.57205e-015 3.97569e-015
lhumerus 72.3617 32.1949 45.1579
lradius 64.9075
lwrist 69.8994
lhand -22.1814 38.9192
lfingers 7.12502
lthumb 4.23361 68.8568
rfemur 5.80472 -14.0583 11.7789
rtibia 45.0428
rfoot -8.28149 2.20196
rtoes -19.8094
lfemur 0.478525 -16.5963 -2.97007
ltibia 39.8678
lfoot 7.83009 -2.08071
ltoes -37.1615
51
root -12.2438 17.8253 23.0459 -9.7933 -66.5783 -2.31607
lowerback 12.7606 -1.43013 -1.66293
upperback -2.60732 -2.37479 -1.82225
thorax -10.0118 -1.10837 -0.519798
lowerneck -23.1258 -4.05182 -0.304458
upperneck 19.1976 -4.23879 -5.38612
head 9.78731 -2.66353 -2.48301
rclavicle -1.82882e-014 1.59028e-014
rhumerus 89.9479 -27.1726 -29.9042
rradius 59.8684
rwrist -25.3537
rhand 20.7855 78.5461
rfingers 7.12502
rthumb 45.2661 55.1521
lclavicle -1.82882e-014 1.59028e-014
lhumerus 70.5741 31.0118 47.7782
lradius 66.5171
lwrist 70.8791
lhand -21.6526 38.7879
lfingers 7.12502
lthumb 4.74418 68.7147
rfemur 5.81827 -13.5808 11.3477
rtibia 45.5068
rfoot -3.26872 7.60267
rtoes -14.2941
lfemur -0.650357 -15.2795 -2.79481
ltibia 41.0828
lfoot 8.14629 2.87855
ltoes -25.6026
